<?xml version="1.0" standalone="no"?>
<!DOCTYPE svg PUBLIC "-//W3C//DTD SVG 20010904//EN"
 "http://www.w3.org/TR/2001/REC-SVG-20010904/DTD/svg10.dtd">
<svg version="1.0" xmlns="http://www.w3.org/2000/svg"
 width="590.000000pt" height="590.000000pt" viewBox="0 0 590.000000 590.000000"
 preserveAspectRatio="xMidYMid meet">

<g transform="translate(0.000000,590.000000) scale(0.100000,-0.100000)"
fill="#000000" stroke="none">
<path d="M120 5855 c0 -38 3 -45 20 -45 11 0 20 -4 20 -10 0 -5 13 -10 29 -10
17 0 33 -4 36 -10 3 -5 14 -10 24 -10 9 0 36 -9 59 -20 22 -11 48 -20 57 -20
8 0 15 -4 15 -10 0 -5 11 -10 25 -10 18 0 47 -21 100 -75 41 -41 75 -79 75
-84 0 -5 8 -12 18 -15 9 -3 23 -19 30 -36 6 -16 18 -43 24 -60 7 -16 15 -30
19 -30 3 0 16 -22 28 -50 12 -27 27 -50 32 -50 5 0 9 -9 9 -20 0 -11 5 -20 10
-20 6 0 10 -13 10 -30 0 -16 4 -30 9 -30 5 0 11 -13 14 -29 3 -16 13 -36 22
-44 8 -9 15 -23 15 -31 0 -9 5 -16 10 -16 6 0 10 -9 10 -20 0 -11 5 -20 10
-20 6 0 10 -13 10 -30 0 -16 4 -30 10 -30 5 0 14 -18 20 -40 6 -22 15 -40 20
-40 6 0 10 -11 10 -24 0 -14 5 -28 10 -31 6 -3 10 -15 10 -26 0 -10 5 -19 10
-19 6 0 10 -7 10 -16 0 -8 7 -22 15 -30 8 -9 15 -28 15 -43 0 -16 7 -34 15
-41 8 -7 15 -21 15 -31 0 -11 5 -19 10 -19 6 0 10 -11 10 -25 0 -14 11 -38 25
-53 14 -15 25 -39 25 -54 0 -14 6 -33 13 -40 19 -21 37 -56 37 -73 0 -8 5 -15
10 -15 6 0 10 -9 10 -20 0 -11 3 -20 8 -20 7 0 11 -11 44 -102 7 -21 16 -38
20 -38 5 0 8 -12 8 -26 0 -15 8 -34 18 -43 11 -9 22 -28 25 -43 4 -15 14 -33
22 -42 8 -8 15 -26 15 -40 0 -13 14 -49 30 -79 17 -30 30 -62 30 -71 0 -9 9
-21 20 -28 12 -8 20 -24 20 -40 0 -16 5 -28 10 -28 6 0 10 -13 10 -30 0 -16 5
-30 10 -30 6 0 10 -9 10 -20 0 -11 4 -20 10 -20 5 0 14 -18 20 -40 6 -22 15
-40 20 -40 6 0 10 -11 10 -24 0 -14 5 -28 10 -31 6 -3 10 -15 10 -26 0 -10 5
-19 10 -19 6 0 10 -13 10 -28 0 -16 8 -34 20 -42 11 -8 20 -24 20 -35 0 -12 9
-31 20 -43 12 -13 20 -35 20 -57 0 -19 4 -35 8 -35 5 0 19 -23 31 -50 12 -28
27 -50 32 -50 5 0 9 -9 9 -20 0 -11 5 -20 10 -20 6 0 10 -13 10 -30 0 -16 5
-30 10 -30 6 0 10 -12 10 -26 0 -30 16 -63 42 -85 10 -9 18 -26 18 -37 0 -11
5 -24 10 -27 6 -3 10 -15 10 -26 0 -10 5 -19 10 -19 6 0 10 -12 10 -26 0 -14
7 -32 15 -40 8 -9 15 -24 15 -33 0 -10 7 -24 15 -31 8 -7 15 -21 15 -31 0 -11
5 -19 10 -19 6 0 10 -9 10 -20 0 -11 5 -20 10 -20 6 0 10 -18 10 -40 0 -22 4
-40 9 -40 5 0 14 -13 21 -30 7 -16 16 -30 21 -30 5 0 9 -10 9 -22 0 -13 9 -34
20 -48 11 -14 20 -33 20 -42 0 -23 21 -68 32 -68 4 0 8 -10 8 -23 0 -13 9 -33
20 -45 11 -12 20 -28 20 -36 0 -8 5 -18 10 -21 6 -3 10 -17 10 -31 0 -15 6
-24 15 -24 8 0 15 4 15 8 0 5 46 56 103 114 57 59 114 122 128 142 13 20 30
36 37 36 17 0 69 54 77 81 4 10 13 19 21 19 18 0 84 65 84 82 0 8 9 20 20 28
21 15 27 54 10 65 -5 3 -10 15 -10 26 0 10 -4 19 -10 19 -5 0 -10 9 -10 20 0
11 -4 20 -10 20 -5 0 -14 18 -20 40 -6 22 -15 40 -20 40 -6 0 -10 10 -10 23 0
13 -9 33 -20 45 -11 12 -20 26 -20 31 0 6 -13 39 -30 73 -17 34 -30 66 -30 70
0 5 -7 16 -15 25 -9 8 -19 28 -22 44 -3 16 -9 29 -14 29 -5 0 -14 20 -20 44
-6 24 -20 54 -30 65 -10 11 -19 26 -19 34 0 8 -11 31 -25 51 -14 20 -25 48
-25 61 0 13 -7 30 -15 39 -8 8 -15 22 -15 30 0 9 -4 16 -8 16 -5 0 -15 23 -22
50 -8 28 -19 50 -27 50 -8 0 -13 12 -13 29 0 16 -7 36 -15 45 -8 8 -15 22 -15
30 0 9 -4 16 -10 16 -5 0 -10 7 -10 15 0 15 -19 55 -31 65 -3 3 -9 17 -12 32
-4 15 -14 33 -22 42 -8 8 -15 27 -15 43 0 15 -9 39 -20 53 -11 14 -20 31 -20
38 0 6 -4 12 -9 12 -5 0 -11 13 -14 29 -3 16 -13 36 -22 44 -8 9 -15 27 -15
41 0 14 -4 26 -10 26 -5 0 -10 9 -10 20 0 11 -4 20 -10 20 -5 0 -10 7 -10 15
0 9 -14 42 -30 75 -16 33 -30 66 -30 75 0 8 -4 15 -10 15 -5 0 -10 14 -10 30
0 17 -4 30 -10 30 -5 0 -10 8 -10 19 0 10 -7 24 -15 31 -8 7 -15 21 -15 31 0
9 -7 24 -15 33 -8 8 -15 22 -15 30 0 9 -4 25 -10 36 -5 11 -14 29 -20 40 -5
11 -10 28 -10 38 0 10 -9 24 -20 32 -11 8 -20 22 -20 32 0 10 -9 33 -20 53
-11 20 -20 47 -20 60 0 14 -4 25 -10 25 -5 0 -10 7 -10 15 0 9 -13 42 -30 75
-16 33 -30 66 -30 75 0 8 -4 15 -10 15 -5 0 -10 13 -10 29 0 17 -4 33 -10 36
-5 3 -10 17 -10 31 0 13 -4 24 -8 24 -5 0 -15 23 -22 50 -7 28 -17 50 -22 50
-4 0 -8 14 -8 30 0 17 -4 30 -9 30 -13 0 -22 61 -28 178 -3 68 -1 102 6 102 6
0 11 14 11 30 0 23 4 30 20 30 11 0 20 4 20 8 0 10 85 52 105 52 8 0 15 5 15
10 0 6 33 10 80 10 47 0 80 4 80 10 0 6 33 10 80 10 l80 0 0 45 0 45 -910 0
-910 0 0 -45z"/>
<path d="M3390 5856 c0 -49 -12 -43 123 -62 23 -3 46 -10 52 -15 5 -5 28 -9
52 -9 24 0 43 -4 43 -8 0 -4 20 -14 45 -21 49 -14 135 -87 135 -114 0 -9 4
-17 8 -17 5 0 14 -11 20 -25 15 -32 16 -175 2 -175 -5 0 -10 -18 -10 -40 0
-22 -4 -40 -10 -40 -5 0 -10 -18 -10 -40 0 -22 -4 -40 -10 -40 -5 0 -10 -17
-10 -38 0 -21 -4 -42 -9 -47 -5 -6 -14 -26 -20 -45 -19 -64 -57 -170 -64 -177
-4 -3 -7 -19 -7 -35 0 -16 -7 -36 -15 -44 -8 -9 -15 -28 -15 -43 0 -16 -7 -34
-15 -41 -8 -7 -15 -29 -15 -49 0 -25 -6 -41 -20 -51 -12 -8 -20 -26 -20 -42 0
-15 -3 -28 -8 -28 -4 0 -12 -15 -18 -32 -7 -18 -17 -46 -23 -63 -6 -16 -13
-42 -16 -57 -3 -15 -12 -33 -20 -42 -8 -8 -15 -19 -15 -25 0 -6 -4 -19 -10
-29 -11 -20 -39 -96 -47 -129 -3 -13 -9 -23 -14 -23 -5 0 -9 -13 -9 -30 0 -16
-4 -30 -10 -30 -5 0 -10 -6 -10 -13 0 -7 -9 -32 -20 -55 -11 -22 -20 -48 -20
-57 0 -8 -4 -15 -10 -15 -5 0 -10 -13 -10 -30 0 -16 -4 -30 -10 -30 -5 0 -10
-9 -10 -19 0 -11 -4 -23 -10 -26 -5 -3 -10 -17 -10 -31 0 -13 -4 -24 -10 -24
-5 0 -14 -18 -20 -40 -6 -22 -15 -40 -20 -40 -6 0 -10 -13 -10 -30 0 -16 -4
-30 -10 -30 -5 0 -10 -10 -10 -23 0 -26 -21 -77 -32 -77 -5 0 -8 -7 -8 -16 0
-8 -7 -22 -15 -31 -9 -8 -19 -28 -22 -44 -3 -16 -9 -29 -14 -29 -5 0 -9 -18
-9 -40 0 -22 -4 -40 -10 -40 -5 0 -10 -7 -10 -16 0 -8 -7 -22 -15 -31 -9 -8
-19 -28 -22 -44 -3 -16 -9 -29 -14 -29 -5 0 -9 -13 -9 -30 0 -16 -4 -30 -10
-30 -5 0 -10 -9 -10 -20 0 -11 -4 -20 -10 -20 -5 0 -10 -13 -10 -30 0 -16 -4
-30 -10 -30 -5 0 -15 -18 -21 -40 -7 -22 -15 -40 -19 -40 -10 0 -30 -47 -30
-70 0 -11 -9 -36 -21 -56 -11 -20 -19 -46 -17 -58 2 -17 62 38 299 275 262
262 298 302 310 343 7 25 17 46 21 46 4 0 8 9 8 20 0 11 5 20 10 20 6 0 10 14
10 30 0 17 5 30 10 30 6 0 10 9 10 19 0 11 4 22 9 25 5 3 14 26 20 51 6 25 16
45 21 45 6 0 10 9 10 20 0 11 5 29 10 40 6 11 15 29 20 40 6 11 10 27 10 36 0
8 7 22 15 30 8 9 15 28 15 43 0 16 6 33 13 39 7 6 19 34 27 62 7 27 17 50 21
50 4 0 9 10 12 23 12 49 40 117 48 117 5 0 9 14 9 30 0 17 5 30 10 30 6 0 10
14 10 30 0 17 5 30 10 30 6 0 10 6 10 14 0 7 7 27 15 42 8 16 15 36 15 45 0 9
7 22 15 29 8 7 15 25 15 41 0 16 5 29 10 29 6 0 10 9 10 19 0 11 5 23 10 26 6
3 10 17 10 29 0 13 7 29 15 36 8 7 15 21 15 31 0 9 7 24 15 33 8 8 15 28 15
45 0 17 5 31 10 31 6 0 10 11 10 24 0 14 5 28 10 31 6 3 10 15 10 26 0 11 7
27 15 35 8 9 15 24 15 33 0 10 7 24 15 31 8 7 15 25 15 41 0 16 5 29 10 29 6
0 10 13 10 29 0 17 5 33 10 36 6 3 10 17 10 31 0 13 4 24 8 24 10 0 52 85 52
105 0 8 5 15 10 15 6 0 10 11 10 24 0 28 57 144 82 167 10 9 18 26 18 37 0 18
101 132 117 132 3 0 20 11 38 24 17 14 48 28 68 31 20 4 37 11 37 16 0 5 9 9
20 9 11 0 20 5 20 10 0 6 20 10 44 10 24 0 60 7 80 15 33 14 36 19 36 55 l0
40 -715 0 -715 0 0 -44z"/>
<path d="M5789 5371 c-30 -32 -70 -66 -87 -75 -17 -9 -36 -25 -42 -36 -9 -17
-53 -54 -119 -100 -11 -8 -21 -22 -21 -32 0 -10 -7 -18 -16 -18 -9 0 -31 -12
-49 -27 -37 -33 -96 -81 -142 -119 -18 -14 -33 -32 -33 -40 0 -8 -7 -14 -15
-14 -9 0 -51 -35 -93 -78 -42 -43 -85 -81 -95 -85 -9 -3 -17 -11 -17 -17 0
-15 -25 -40 -40 -40 -6 0 -51 -40 -100 -90 -49 -49 -95 -90 -103 -90 -8 0 -19
-11 -25 -25 -6 -14 -16 -25 -22 -25 -5 0 -47 -37 -92 -81 -46 -45 -103 -98
-128 -118 -69 -56 -110 -99 -110 -116 0 -8 -9 -15 -20 -15 -11 0 -20 -4 -20
-10 0 -5 -9 -10 -20 -10 -11 0 -20 -5 -20 -12 0 -10 -77 -88 -87 -88 -7 0 -82
-84 -83 -92 0 -5 -5 -8 -10 -8 -6 0 -46 -36 -90 -80 -44 -44 -84 -80 -89 -80
-5 0 -13 -9 -16 -20 -3 -11 -13 -20 -22 -20 -18 0 -69 -53 -78 -81 -4 -10 -13
-19 -22 -19 -18 0 -69 -53 -78 -81 -4 -10 -13 -19 -21 -19 -8 0 -115 -101
-238 -224 -123 -123 -233 -227 -243 -230 -11 -4 -26 -19 -34 -34 -19 -37 -75
-92 -94 -92 -8 0 -15 -7 -15 -15 0 -19 -35 -55 -72 -74 -16 -8 -28 -20 -28
-28 0 -7 -101 -114 -224 -238 -124 -123 -227 -234 -231 -245 -3 -11 -13 -20
-22 -20 -18 0 -69 -53 -78 -81 -4 -10 -13 -19 -21 -19 -17 0 -84 -64 -84 -80
0 -5 -43 -53 -95 -106 -52 -53 -95 -100 -95 -105 0 -5 -5 -9 -11 -9 -11 0 -88
-80 -89 -92 0 -4 -29 -37 -65 -73 -36 -35 -65 -71 -65 -80 0 -8 -6 -15 -13
-15 -17 0 -87 -62 -87 -77 0 -7 -4 -13 -10 -13 -5 0 -10 -5 -10 -10 0 -6 -40
-51 -90 -100 -49 -49 -90 -94 -90 -99 0 -6 -58 -70 -130 -142 -71 -72 -130
-135 -130 -140 0 -5 -25 -34 -55 -65 -30 -31 -57 -65 -60 -75 -4 -11 -13 -19
-21 -19 -16 0 -63 -48 -64 -65 0 -6 -9 -17 -20 -25 -11 -8 -20 -17 -20 -21 0
-4 -17 -25 -37 -46 -107 -113 -133 -143 -133 -151 0 -6 -11 -17 -25 -26 -14
-9 -25 -21 -25 -27 0 -6 -18 -28 -40 -49 -22 -21 -40 -44 -40 -51 0 -13 -38
-49 -52 -49 -4 0 -8 -5 -8 -11 0 -6 -12 -23 -27 -37 -31 -30 -68 -77 -43 -55
8 7 20 13 28 13 7 0 30 17 50 38 20 21 45 41 54 45 10 3 18 13 18 22 0 8 7 15
16 15 9 0 39 23 66 50 27 28 54 50 59 50 13 0 89 78 89 91 0 5 7 9 15 9 8 0
15 4 15 9 0 5 9 12 19 16 11 3 49 35 85 70 35 36 71 65 78 65 7 0 19 13 26 30
7 16 22 32 33 35 11 4 49 36 85 71 35 35 70 64 79 64 8 0 15 9 15 19 0 11 9
23 21 26 11 4 63 49 115 101 51 52 98 94 104 94 5 0 57 47 116 105 58 58 109
105 113 105 15 0 51 38 51 53 0 9 9 18 20 22 11 3 52 37 92 75 101 95 128 120
134 120 8 0 83 84 84 93 0 4 5 7 10 7 6 0 39 28 75 63 35 34 82 76 104 92 22
17 40 36 41 43 0 15 24 42 37 42 14 0 63 47 63 60 0 14 38 50 52 50 12 0 1248
1239 1248 1252 0 11 38 48 50 48 11 0 50 36 50 46 0 14 43 60 63 67 9 3 17 11
17 17 0 6 43 54 95 107 52 53 95 100 95 105 0 4 7 8 15 8 8 0 15 3 15 8 0 4
27 37 60 72 33 36 66 77 73 93 6 15 18 27 26 27 13 0 81 67 81 80 0 4 51 59
114 123 63 64 117 125 121 136 3 12 15 21 26 21 10 0 19 7 19 15 0 8 36 51 80
96 44 44 80 85 80 90 0 5 50 59 110 120 61 61 110 114 110 119 0 5 38 48 85
96 47 48 85 91 85 94 0 4 11 20 25 36 14 16 25 35 25 42 0 6 7 12 16 12 16 0
54 36 54 51 0 4 18 26 40 49 22 23 40 46 40 51 0 5 34 42 75 84 65 65 92 106
68 104 -5 0 -33 -26 -64 -58z"/>
<path d="M4263 3465 c-24 -24 -43 -51 -43 -60 0 -8 -7 -15 -15 -15 -20 0 -85
-65 -85 -84 0 -8 -9 -18 -20 -21 -22 -7 -210 -192 -210 -206 0 -12 -113 -124
-132 -132 -10 -3 -18 -11 -18 -17 0 -6 -27 -38 -60 -70 l-60 -59 0 -1097 c0
-684 -4 -1109 -10 -1128 -5 -17 -12 -52 -15 -78 -4 -26 -13 -54 -21 -62 -8 -8
-14 -23 -14 -33 -1 -23 -18 -45 -52 -62 -16 -8 -28 -18 -28 -23 0 -4 -18 -8
-40 -8 -22 0 -40 -4 -40 -10 0 -5 -9 -10 -20 -10 -11 0 -20 5 -20 10 0 6 -16
10 -35 10 -42 0 -72 26 -104 88 -11 22 -25 43 -31 47 -5 3 -10 21 -10 40 0 19
-4 37 -10 40 -5 3 -10 19 -10 35 0 16 -4 32 -10 35 -5 3 -10 16 -10 28 0 13
-9 29 -20 37 -11 8 -20 22 -20 32 0 23 -20 59 -42 76 -10 7 -18 20 -18 28 0 8
-9 14 -20 14 -11 0 -20 5 -20 10 0 6 -9 10 -20 10 -11 0 -20 5 -20 10 0 6 -6
10 -14 10 -7 0 -27 7 -42 15 -38 19 -143 19 -168 0 -11 -8 -28 -15 -38 -15
-38 0 -178 -110 -178 -140 0 -6 -7 -18 -15 -26 -8 -9 -15 -33 -15 -53 0 -22
-6 -44 -15 -51 -19 -16 -19 -57 0 -90 8 -14 14 -46 15 -72 0 -28 6 -53 15 -62
8 -8 15 -22 15 -30 0 -9 5 -16 10 -16 6 0 10 -8 10 -17 0 -19 86 -105 143
-143 20 -14 37 -28 37 -32 0 -5 14 -8 30 -8 17 0 30 -4 30 -10 0 -5 8 -10 18
-10 9 0 30 -7 46 -15 15 -8 39 -15 51 -15 13 0 30 -7 39 -15 9 -9 33 -15 65
-15 27 0 53 -4 56 -10 4 -6 57 -10 126 -10 73 0 119 4 119 10 0 6 30 10 70 10
54 0 70 3 70 14 0 10 19 16 65 21 36 4 68 11 71 16 3 5 14 9 25 9 10 0 19 5
19 10 0 6 14 10 30 10 17 0 30 5 30 10 0 6 9 10 19 10 11 0 23 5 26 10 4 6 26
20 51 31 24 12 44 25 44 30 0 5 7 9 16 9 9 0 24 8 33 18 9 9 28 23 44 31 15 8
27 23 27 33 0 10 7 18 15 18 18 0 85 64 85 80 0 7 18 29 40 50 22 21 40 46 40
54 0 9 5 16 10 16 6 0 10 7 10 15 0 9 9 25 20 37 11 12 20 32 20 45 0 13 4 23
8 23 15 0 52 90 52 125 0 19 5 35 10 35 6 0 10 16 10 35 0 32 15 72 31 85 7 5
11 31 31 175 7 52 12 491 14 1253 4 1113 3 1172 -13 1172 -10 -1 -37 -21 -60
-45z"/>
</g>
</svg>
